<svg width="37" height="37" viewBox="0 0 37 37" fill="none" xmlns="http://www.w3.org/2000/svg">
<g clip-path="url(#clip0_91_53)">
<path d="M36.9997 18.3855C36.9564 14.8383 35.9065 11.3774 33.9737 8.41041C32.0408 5.44341 29.3058 3.09387 26.0904 1.63852C22.8747 0.183171 19.3129 -0.317371 15.8242 0.195806C12.3355 0.709007 9.06517 2.21454 6.39839 4.53518C3.73158 6.8558 1.77939 9.89484 0.771685 13.2944C-0.235993 16.694 -0.257223 20.3124 0.71054 23.7237C1.6783 27.135 3.59473 30.1969 6.23413 32.5491C8.87351 34.9012 12.126 36.4455 15.6084 37V23.807H10.9833V18.3855H15.6084V14.2671C15.5013 13.3095 15.6045 12.3399 15.9107 11.4268C16.2169 10.5137 16.7185 9.67926 17.3801 8.9825C18.0417 8.28572 18.8472 7.74355 19.7398 7.39427C20.6325 7.04497 21.5906 6.89706 22.5461 6.961C23.9332 6.9801 25.317 7.10456 26.6856 7.33329V11.9869H24.373C23.9744 11.9363 23.5692 11.9765 23.1881 12.1045C22.8067 12.2326 22.4589 12.4452 22.1703 12.7266C21.8817 13.0081 21.6597 13.3512 21.5207 13.7305C21.3815 14.11 21.329 14.5161 21.3667 14.9186V18.4321H26.5006L25.6681 23.8535H21.3898V36.8837C25.7604 36.1882 29.7384 33.9396 32.6023 30.5457C35.4662 27.1518 37.0263 22.8377 36.9997 18.3855Z" fill="#1F5673"/>
</g>
<defs>
<clipPath id="clip0_91_53">
<rect width="37" height="37" fill="white"/>
</clipPath>
</defs>
</svg>
