<svg width="38" height="39" viewBox="0 0 38 39" fill="none" xmlns="http://www.w3.org/2000/svg">
<g clip-path="url(#clip0_91_55)">
<path fill-rule="evenodd" clip-rule="evenodd" d="M18.5491 0.945557C8.32035 0.945557 0 9.26823 0 19.4999C0 23.5576 1.30859 27.3208 3.53309 30.3753L1.22119 37.2689L8.35296 34.9896C11.2862 36.9312 14.7867 38.0546 18.5599 38.0546C28.7887 38.0546 37.109 29.7316 37.109 19.5002C37.109 9.26856 28.7887 0.945863 18.5599 0.945863L18.5491 0.945557ZM13.3692 10.3703C13.0094 9.50867 12.7367 9.47604 12.1917 9.45388C12.0061 9.4431 11.7993 9.43234 11.57 9.43234C10.8609 9.43234 10.1195 9.63952 9.67234 10.0976C9.1273 10.6539 7.77497 11.9518 7.77497 14.6134C7.77497 17.2751 9.71604 19.8493 9.97764 20.2095C10.2503 20.5691 13.7619 26.1103 19.2142 28.3687C23.4779 30.1358 24.7431 29.972 25.7135 29.7648C27.1311 29.4594 28.9087 28.4118 29.3559 27.1469C29.8031 25.8813 29.803 24.8014 29.6719 24.5723C29.5411 24.3433 29.181 24.2128 28.636 23.9397C28.091 23.6669 25.4408 22.358 24.9392 22.1834C24.4483 21.9981 23.9796 22.0637 23.609 22.5873C23.0855 23.3181 22.5731 24.0601 22.1586 24.5071C21.8314 24.8562 21.2968 24.8999 20.8499 24.7142C20.2501 24.4637 18.571 23.8741 16.4988 22.0307C14.8957 20.602 13.8053 18.8242 13.4892 18.2897C13.1728 17.7445 13.4566 17.4278 13.7071 17.1335C13.9798 16.7951 14.2414 16.5553 14.5141 16.2389C14.7867 15.9227 14.9394 15.7589 15.1139 15.388C15.2995 15.0281 15.1683 14.6571 15.0375 14.3844C14.9067 14.1116 13.8164 11.45 13.3692 10.3703Z" fill="#1F5673"/>
</g>
<defs>
<clipPath id="clip0_91_55">
<rect width="37.109" height="37.109" fill="white" transform="translate(0 0.945557)"/>
</clipPath>
</defs>
</svg>
